<svg width="21" height="24" viewBox="0 0 21 24" fill="none" xmlns="http://www.w3.org/2000/svg">
<path d="M20.1164 10.0425L11.6741 10.042C11.3013 10.042 10.9991 10.369 10.9991 10.7725V13.6914C10.9991 14.0948 11.3013 14.4219 11.674 14.4219H16.4282C15.9076 15.8841 14.936 17.1086 13.6963 17.8867L15.7235 21.6847C18.9753 19.6493 20.8979 16.0779 20.8979 12.08C20.8979 11.5107 20.8591 11.1038 20.7816 10.6456C20.7226 10.2974 20.4434 10.0425 20.1164 10.0425Z" fill="#167EE6"/>
<path d="M10.5488 18.8075C8.22215 18.8075 6.19104 17.4316 5.10018 15.3958L1.59106 17.5848C3.37683 20.9345 6.72215 23.1902 10.5488 23.1902C12.426 23.1902 14.1973 22.6432 15.7231 21.6899V21.6847L13.696 17.8866C12.7687 18.4687 11.6957 18.8075 10.5488 18.8075Z" fill="#12B347"/>
<path d="M15.7244 21.6899V21.6847L13.6969 17.8866C12.7695 18.4687 11.6964 18.8075 10.5492 18.8075V23.1902C12.4267 23.1902 14.1984 22.6432 15.7244 21.6899Z" fill="#0F993E"/>
<path d="M4.25111 11.99C4.25111 10.7488 4.56413 9.58755 5.10191 8.58402L1.59222 6.39496C0.706402 8.0412 0.200928 9.95305 0.200928 11.99C0.200928 14.0268 0.706402 15.9387 1.59222 17.5849L5.10191 15.3959C4.56413 14.3923 4.25111 13.2311 4.25111 11.99Z" fill="#FFD500"/>
<path d="M10.5486 5.17226C12.0658 5.17226 13.4594 5.75573 14.5479 6.72627C14.8165 6.96568 15.2068 6.94839 15.4528 6.68217L17.3637 4.61403C17.6427 4.31197 17.6229 3.81753 17.3247 3.53761C15.501 1.82522 13.128 0.78949 10.5486 0.78949C6.72202 0.78949 3.37671 3.04519 1.59094 6.39489L5.10006 8.58396C6.19092 6.54807 8.22203 5.17226 10.5486 5.17226Z" fill="#FF4B26"/>
<path d="M14.5485 6.72627C14.817 6.96568 15.2074 6.94839 15.4533 6.68217L17.3642 4.61403C17.6433 4.31197 17.6234 3.81753 17.3253 3.53761C15.5015 1.82518 13.1286 0.78949 10.5492 0.78949V5.17226C12.0663 5.17226 13.46 5.75573 14.5485 6.72627Z" fill="#D93F21"/>
</svg>
